<svg
   xmlns:svg="http://www.w3.org/2000/svg"
   xmlns="http://www.w3.org/2000/svg"
   version="1.1"
   viewBox="0 0 44 44">
  <g transform="translate(-9.835466,-9.915905)" style="opacity: 0.6">
    <mask fill="white" id="path-2-inside-1">
      <path d="M 16.4437,47.5563 C 13.367,44.4796 11.2717,40.5596 10.4228,36.292 9.57394,32.0244 10.0096,27.6009 11.6747,23.581 c 1.6652,-4.02 4.485,-7.4559 8.1029,-9.8733 C 23.3954,11.2903 27.6489,10 32.0001,10 c 4.3512,0 8.6047,1.2903 12.2225,3.7077 3.6179,2.4174 6.4377,5.8533 8.1028,9.8733 1.6652,4.0199 2.1008,8.4434 1.252,12.711 -0.8489,4.2676 -2.9442,8.1876 -6.021,11.2643 L 32.0001,32 Z" />
    </mask>
    <path
       stroke-linejoin="round"
       mask="url(#path-2-inside-1)"
       stroke="#ddd"
       stroke-width="10"
       d="M 16.4437,47.5563 C 13.367,44.4796 11.2717,40.5596 10.4228,36.292 9.57394,32.0244 10.0096,27.6009 11.6747,23.581 c 1.6652,-4.02 4.485,-7.4559 8.1029,-9.8733 C 23.3954,11.2903 27.6489,10 32.0001,10 c 4.3512,0 8.6047,1.2903 12.2225,3.7077 3.6179,2.4174 6.4377,5.8533 8.1028,9.8733 1.6652,4.0199 2.1008,8.4434 1.252,12.711 -0.8489,4.2676 -2.9442,8.1876 -6.021,11.2643 L 32.0001,32 Z" />
    <mask
       fill="white"
       id="path-3-inside-2">
      <path
         id="path17"
         d="m 16.4437,47.5563 c -2.3805,-2.3805 -4.1829,-5.2756 -5.2685,-8.4624 -1.0856,-3.1867 -1.42527,-6.5801 -0.993,-9.9188 0.4323,-3.3388 1.6251,-6.5337 3.4865,-9.3389 1.8614,-2.8052 4.3417,-5.1458 7.25,-6.8416 L 32.0001,32 Z" />
    </mask>
    <path
       mask="url(#path-3-inside-2)"
       stroke-linejoin="round"
       stroke-width="10"
       stroke="#ccc"
       d="m 16.4437,47.5563 c -2.3805,-2.3805 -4.1829,-5.2756 -5.2685,-8.4624 -1.0856,-3.1867 -1.42527,-6.5801 -0.993,-9.9188 0.4323,-3.3388 1.6251,-6.5337 3.4865,-9.3389 1.8614,-2.8052 4.3417,-5.1458 7.25,-6.8416 L 32.0001,32 Z" />
    <circle
       fill="white"
       transform="rotate(135,32.0002,32)"
       r="18"
       cy="32"
       cx="32.000198" />
    <circle
       stroke="#ccc"
       fill="#ddd"
       transform="rotate(135,31.9998,32)"
       r="13.5"
       cy="32"
       cx="31.9998" />
  </g>
</svg>
