<?xml version="1.0" encoding="utf-8"?>
<!-- Generator: Adobe Illustrator 21.0.0, SVG Export Plug-In . SVG Version: 6.00 Build 0)  -->
<svg version="1.1" id="Layer_1" xmlns="http://www.w3.org/2000/svg" xmlns:xlink="http://www.w3.org/1999/xlink" x="0px" y="0px"
	 viewBox="0 0 141.4 28.8" style="enable-background:new 0 0 141.4 28.8;" xml:space="preserve">
<g>
	<g class="logo-d">
		<path d="M74,26l22.6,0c1.7,0,3.1-1.4,3.1-3.1l0-16.8c0-1.7-1.4-3.1-3.1-3.1l-23.5,0v0.4l0,22.6L74,26z M76.2,0.2l20.4,0
			c3.2,0,5.8,2.6,5.8,5.8l0,16.8c0,3.2-2.6,5.8-5.8,5.8l-22.5,0l-1.3,0l-2.4,0v-0.5l0-28L76.2,0.2z M95.4,6.5l-18.7,0l0,15.9l18.7,0
			c0.4,0,0.8-0.3,0.8-0.7l0-14.4C96.2,6.9,95.8,6.5,95.4,6.5 M96.6,3.8c1.2,0,2.2,1,2.2,2.2l0,16.8c0,1.2-1,2.2-2.2,2.2l-22.6,0
			l0-21.3L96.6,3.8z" fill="#D7172F"/>
	</g>
	<g class="logo-l">
		<polygon points="2.6,0 0,0 0,0 0,28.8 30.8,28.8 30.8,26.1 2.6,26.1 	" fill="#D7172F"/>
		<polygon points="30.8,25.2 30.8,22.7 6.1,22.7 6.1,0 3.5,0 3.5,25.2 	" fill="#D7172F"/>
	</g>
	<g class="logo-p">
		<path d="M40.7,0.2l20.4,0c3.2,0,5.8,2.6,5.8,5.8l0,5.7c0,3.2-2.6,5.8-5.8,5.8l-19.9,0l0,11.1l-2.7,0l0-13.8l22.6,0
			c1.7,0,3.1-1.4,3.1-3.2l0-5.7c0-1.7-1.4-3.1-3.1-3.1l-23.5,0v0.4l0,25.3l-2.7,0l0-11.5l0-16.9L40.7,0.2z" fill="#D7172F"/>
		<path d="M61.1,3.8l-22.6,0l0,10.2l22.6,0c1.2,0,2.2-1,2.2-2.3l0-5.7C63.3,4.8,62.3,3.8,61.1,3.8 M60.6,10.6c0,0.4-0.3,0.7-0.7,0.7
			l-18.7,0l0-4.8l18.7,0c0.4,0,0.7,0.3,0.7,0.7L60.6,10.6z" fill="#D7172F"/>
	</g>
	<path d="M141.4,7.4c0-3.9-2.9-7-6.5-7l-21.2,0c-3.6,0-6.5,3.1-6.5,7l0,3.2c0,1.5,0.4,2.9,1.2,4c-0.7,1.1-1.2,2.5-1.2,4l0,3.2
		c0,3.9,2.9,7,6.5,7l21.2,0c3.6,0,6.5-3.1,6.5-7v-3.2c0-1.5-0.4-2.9-1.2-4c0.7-1.1,1.2-2.5,1.2-4V7.4z M136,21.3
		c0,0.8-0.5,1.4-1.2,1.5l-20.7,0c-0.7,0-1.3-0.7-1.3-1.5l0-2.3c0-0.8,0.5-1.4,1.2-1.5l20.7,0c0.7,0,1.3,0.7,1.3,1.5V21.3z M136,10.1
		c0,0.8-0.5,1.4-1.2,1.5l-20.7,0c-0.7,0-1.3-0.7-1.3-1.5l0-2.3c0-0.8,0.5-1.4,1.2-1.5l20.7,0c0.7,0,1.3,0.7,1.3,1.5V10.1z"/>
</g>
</svg>
