<svg width="25" height="36" viewBox="0 0 25 36" fill="none" xmlns="http://www.w3.org/2000/svg">
  <path fill-rule="evenodd" clip-rule="evenodd" d="M12.2362 7.61614L3.49695 7.56348L7.78855 34.6768H8.7249H17.3081H18.2445L22.5361 7.56348L12.2362 7.61614Z" fill="gray"></path>
  <path fill-rule="evenodd" clip-rule="evenodd" d="M12.2362 7.61614L3.49695 7.56348L7.78855 34.6768H8.7249H15.1233H16.0596L20.3512 7.56348L12.2362 7.61614Z" fill="silver"></path>
  <path fill-rule="evenodd" clip-rule="evenodd" d="M1 7.56347H23.5504V5.06311H1V7.56347Z" fill="white"></path>
  <path fill-rule="evenodd" clip-rule="evenodd" d="M1 7.56347H23.5504V5.06311H1V7.56347Z" stroke="black" stroke-width="1.17044"></path>
  <path fill-rule="evenodd" clip-rule="evenodd" d="M19.1808 1H13.7968H10.5976H5.21356L3.57495 4.75055H10.5976H13.7968H20.8194L19.1808 1Z" fill="white"></path>
  <path fill-rule="evenodd" clip-rule="evenodd" d="M19.1808 1H13.7968H10.5976H5.21356L3.57495 4.75055H10.5976H13.7968H20.8194L19.1808 1Z" stroke="#050505" stroke-width="1.17044"></path>
  <path fill-rule="evenodd" clip-rule="evenodd" d="M12.2362 7.61614L1.93634 7.56348L6.22794 34.6768H7.16429H17.3081H18.2444L22.536 7.56348L12.2362 7.61614Z" stroke="black" stroke-width="1.17044"></path>
  <path fill-rule="evenodd" clip-rule="evenodd" d="M22.8482 15.2208H12.567H11.8274H1.5462L3.46931 26.0036L12.1972 25.9096L20.9251 26.0036L22.8482 15.2208Z" fill="white"></path>
  <path fill-rule="evenodd" clip-rule="evenodd" d="M22.8482 15.2208H12.567H11.8274H1.5462L3.46931 26.0036L12.1972 25.9096L20.9251 26.0036L22.8482 15.2208Z" stroke="black" stroke-width="1.17044"></path>
</svg>