<svg version="1.1" xmlns="http://www.w3.org/2000/svg" viewBox="0 0 1280 1280" enable-background="new 0 0 1280 1280">
<g id="Body" fill="gray" stroke="gray">
  <path d="M-18.376,1315.057l-31.696-424.646
    c0,0,726.407,89.256,745.463-406.479c0.117-3.043,10.697-5.833,10.697-5.833s302.245,81.567,350.982,118.494l1.441,0.953
    c40.595,26.408,28.819,51.788,19.557,84.542l-0.468,1.123c-20.998,71.913-25.101,73.123-6.101,106.872
    c13.75,26.917-10.344,67.577,46.693,95.026l1.477,0.715c75.6,35.084-2.604,84.838-18.867,99.247c0,0-0.383,0.479-0.489,0.604
    c-41.484,48.158-102.987,37.824-170.319,39.824c0,0-0.686-0.007-0.914,0c-571.414,16.833-530.747,165.5-591.974,254.666
    l-3.995,8.886l-355.482,35.057"/>
</g>
<g id="Head" fill="silver" stroke="silver" >
  <path stroke-width="2" d="M-0.5,1111.567c201,65.433,569.746,62.343,654.09-190.99
    c0,0,29.01-70.2,35.998-94.495c79.422-276.12,67.35-317.082,97.988-578.207l0.061-0.208C695.637,175,669.652,127.333,624.209-1
    L305.992-2c-34.822,0-62.977,15.146-62.977,33.663l-0.018,0.837c-6.333,40.5-4.142,25.922-63.143,31.422L179,64
    c-51,7.667-43.233,3.962-50.566-10.135L128,53C107,4.333,95.161,12.161-1.505,12.161L0,267
    c112.333-11.333,114.208,5.416,123.541-100.584l0.125-1.166c10-60-5.749-67.75,76.251-67.75h0.833c35.099,0,43.75-5.167,55.75,21.5
    v0.375C276.5,148.179,285,233.5,325,227.5h2.667c338.667-11,337.333-30.251,331.333-86.25l29.838,45.667
    C710.839,418.917,588.208,527,528.875,593l-2.504-1.404c-259.372-147.928-209.248-59.707-314.705-61.262
    C119,537.001,126.332,448.001-4,556l4,110.471C-24.5,613.5,22.5,662.5,116.5,636l0.573-0.291
    c94.5-48,105.427-37.209,148.927-16.298l0.69,0.281C318.441,640.737,322,643,389,645.5l0.586-0.059
    C414.918,643.476,501,620.334,391.5,724.5l0,0c-6,3.642-54,60.83-78,26.5l0,0c-27-29.41-13.583-37.5-102.583-28.5h-0.708
    c-82,7-83.75-5.816-98.268,29.494l-0.378,0.724c-5.598,8.689-7.567,30.733-47.567-15.345l-0.753-0.599
    C0,679.667,43.338,717.247-0.5,682.646V1111.567z"/>
</g>
<g id="Nose" fill="silver" stroke="silver">
  <path d="M274.682,391.605c7-53.667,8.818-85.934,8.818-140.598V249.5
    c0,0,5.103-6.813,10.103-0.188l-0.188,1.695c1.002,75.661-10.336,140.235-10.336,140.235l-0.428,2.258
    c-4.479,5.584-8.15,0.125-8.15,0.125L274.682,391.605z"/>
  <path d="M336,374c29.834,18.501,33.039,39.137,32.337,47.996
    C367,438.875,360.683,453.798,327.31,474c-15.144,9.167-52.935,25.125-59.56,52.25l10.125-2.938
    c0-18.517,58.514-45.41,58.514-45.41S374,459.75,376.702,421.75c0.39-5.489,1.017-33.357-33.452-53.25
    C335.167,363.835,334.066,372.801,336,374z"/>
  <path  d="M168.17,551.5c-15.057-23-35.334-61.334-54.836-73.234
    c-7.109-4.338-21.122-9.492-27.497-14.85c-11.43-9.607-28.31-37.642-35.167-50.375c-2.333-4.333,3.667-8.354,6.33-4.02
    c12.54,20.409,22.083,39.35,33.333,48.989c5.604,4.802,20.407,11.084,26.667,14.994c21.146,13.211,60.003,78.496,60.003,78.496
    H168.17z"/>
</g>
</svg>
